<?xml version="1.0" standalone="no"?>
<!DOCTYPE svg PUBLIC "-//W3C//DTD SVG 20010904//EN"
 "http://www.w3.org/TR/2001/REC-SVG-20010904/DTD/svg10.dtd">
<svg version="1.0" xmlns="http://www.w3.org/2000/svg"
 width="1220.000000pt" height="1049.000000pt" viewBox="0 0 1220.000000 1049.000000"
 preserveAspectRatio="xMidYMid meet">

<g transform="translate(0.000000,1049.000000) scale(0.100000,-0.100000)"
fill="#000000" stroke="none">
<path d="M3642 8623 c-61 -135 -81 -235 -81 -413 0 -135 3 -164 33 -275 36
-132 157 -337 255 -429 17 -17 31 -35 31 -41 0 -6 -42 -44 -92 -85 -134 -107
-408 -384 -525 -531 -317 -398 -529 -823 -663 -1334 -29 -108 -59 -266 -92
-475 -16 -99 -16 -747 -1 -850 59 -385 116 -615 228 -910 78 -208 241 -515
384 -725 235 -347 603 -716 946 -950 189 -129 427 -261 595 -330 36 -14 79
-32 95 -40 56 -25 174 -66 315 -109 217 -66 473 -111 750 -130 41 -3 113 -8
160 -11 78 -6 330 6 441 21 l45 6 -143 214 c-78 118 -203 317 -277 442 -75
125 -139 232 -143 239 -6 9 -29 9 -98 1 -102 -12 -488 -4 -550 11 -22 5 -71
17 -108 25 -108 25 -213 63 -332 121 -308 149 -520 385 -657 730 -38 96 -67
185 -60 184 4 0 34 -34 67 -76 84 -107 285 -308 375 -375 161 -119 384 -216
581 -252 126 -24 349 -37 477 -30 98 6 112 9 106 23 -4 9 -26 73 -50 143 -104
303 -128 615 -70 889 28 126 27 125 63 219 109 281 298 511 548 667 114 71
230 119 385 159 120 31 154 36 305 41 176 6 317 -5 410 -32 150 -44 186 -56
246 -84 243 -111 413 -283 510 -517 24 -57 79 -279 79 -316 0 -20 -21 -3 -75
63 -32 39 -101 107 -154 151 -197 163 -403 261 -659 314 -220 45 -498 25 -689
-51 -336 -133 -571 -400 -647 -735 -9 -41 -21 -94 -27 -117 -11 -50 -12 -203
-1 -203 4 1 23 26 42 57 138 221 486 430 785 473 100 14 347 12 435 -4 242
-44 486 -180 604 -336 86 -115 116 -204 116 -344 0 -100 -45 -276 -70 -276 -3
0 -14 17 -24 38 -56 116 -187 267 -303 345 -76 52 -224 122 -299 141 -96 24
-240 46 -303 46 -33 0 -117 -11 -186 -25 -215 -43 -358 -117 -501 -259 -106
-106 -141 -169 -150 -267 -5 -54 -3 -74 15 -113 16 -36 24 -46 33 -39 16 13
243 78 318 92 158 28 373 31 494 6 159 -33 317 -133 411 -259 44 -60 102 -182
92 -192 -3 -3 -21 6 -39 20 -19 14 -61 37 -93 51 -33 15 -69 31 -80 36 -121
55 -473 63 -667 14 -113 -28 -234 -67 -247 -80 -12 -12 -3 -30 59 -127 183
-285 425 -627 528 -748 l29 -35 64 13 c96 19 383 109 474 148 282 121 406 188
620 331 200 134 235 161 378 286 604 524 1033 1249 1184 1997 14 69 29 143 33
166 36 171 52 708 29 969 -16 193 -67 477 -109 610 -10 33 -33 105 -50 160
-81 255 -224 552 -388 804 -352 544 -832 974 -1417 1269 -156 79 -200 97 -440
182 -382 134 -850 201 -1315 187 -236 -8 -358 -19 -520 -48 -323 -59 -518
-120 -800 -251 -59 -28 -65 -29 -75 -13 -44 73 -141 213 -192 275 -140 172
-371 358 -614 493 l-66 37 -31 -67z m2579 -1104 c500 -35 931 -201 1314 -508
504 -403 837 -996 932 -1661 26 -180 26 -772 0 -978 -10 -79 -23 -155 -29
-170 l-10 -27 -10 25 c-54 131 -163 320 -240 414 -65 80 -176 192 -253 255
-195 160 -400 263 -710 355 -192 57 -628 65 -890 16 -165 -30 -318 -70 -495
-130 -304 -102 -444 -138 -720 -189 -125 -23 -335 -33 -471 -21 -73 6 -135 13
-139 15 -4 2 -51 14 -106 26 -106 22 -121 28 -261 95 -226 109 -405 327 -459
559 -24 105 -24 281 0 390 24 106 118 296 202 408 64 86 223 261 230 254 2 -2
8 -46 14 -98 15 -151 69 -268 174 -377 79 -83 179 -143 296 -180 126 -40 121
-39 315 -57 93 -9 173 -18 176 -21 4 -2 44 -11 89 -20 142 -26 297 -93 420
-180 57 -40 112 -68 203 -101 62 -24 87 -27 177 -27 116 0 177 19 233 72 72
68 84 147 38 269 -45 123 -113 225 -378 571 -39 51 -102 141 -139 200 -119
190 -150 236 -212 313 -66 83 -249 261 -312 306 -22 16 -40 33 -40 39 0 11
183 71 320 103 120 29 274 51 420 60 69 5 135 9 147 10 12 0 90 -4 174 -10z"/>
</g>
</svg>
